<?xml version="1.0" encoding="UTF-8" standalone="no"?>
<!-- Generated by IcoMoon.io -->

<svg
   version="1.1"
   width="1024"
   height="1024"
   viewBox="0 0 1024 1024"
   id="svg7"
   sodipodi:docname="boxes.svg"
   inkscape:version="1.1.2 (b8e25be833, 2022-02-05)"
   xmlns:inkscape="http://www.inkscape.org/namespaces/inkscape"
   xmlns:sodipodi="http://sodipodi.sourceforge.net/DTD/sodipodi-0.dtd"
   xmlns="http://www.w3.org/2000/svg"
   xmlns:svg="http://www.w3.org/2000/svg">
  <defs
     id="defs11" />
  <sodipodi:namedview
     id="namedview9"
     pagecolor="#505050"
     bordercolor="#ffffff"
     borderopacity="1"
     inkscape:pageshadow="0"
     inkscape:pageopacity="0"
     inkscape:pagecheckerboard="1"
     showgrid="false"
     showguides="true"
     inkscape:guide-bbox="true"
     inkscape:zoom="0.35355339"
     inkscape:cx="250.3158"
     inkscape:cy="418.60721"
     inkscape:window-width="1920"
     inkscape:window-height="1017"
     inkscape:window-x="-8"
     inkscape:window-y="-8"
     inkscape:window-maximized="1"
     inkscape:current-layer="svg7"
     width="1024px" />
  <title
     id="title2" />
  <g
     id="icomoon-ignore" />
  <g
     id="g3758"
     transform="matrix(5.8071571,0,0,5.8071571,-3390.4096,-1034.0648)"
     style="stroke-width:4.46788">
    <path
       style="color:#000000;fill:#000000;stroke-linecap:round;stroke-linejoin:round;-inkscape-stroke:none"
       d="m 634.55469,189.97852 a 2.2341633,2.2341633 0 0 0 -2.23438,2.23437 v 57.54688 a 2.2341633,2.2341633 0 0 0 2.23438,2.23437 h 74.89062 a 2.2341633,2.2341633 0 0 0 2.23438,-2.23437 v -57.54688 a 2.2341633,2.2341633 0 0 0 -2.23438,-2.23437 z m 2.23437,4.46875 h 70.42188 v 53.07812 h -70.42188 z"
       id="path79" />
    <g
       id="g1434"
       transform="translate(150.43739,-0.6931408)"
       style="stroke:#000000;stroke-linecap:round;stroke-linejoin:round;paint-order:markers fill stroke">
      <path
         style="color:#000000;fill:#000000;stroke:none;stroke-linecap:butt;stroke-linejoin:miter;-inkscape-stroke:none"
         d="m 446.67187,248.81836 a 2.2341633,2.2341633 0 0 0 -2.23242,2.23437 v 57.54688 a 2.2341633,2.2341633 0 0 0 2.23242,2.23437 h 74.89063 a 2.2341633,2.2341633 0 0 0 2.23437,-2.23437 v -57.54688 a 2.2341633,2.2341633 0 0 0 -2.23437,-2.23437 z m 2.23438,4.46875 h 70.42187 v 53.07812 h -70.42187 z"
         id="path76" />
      <path
         style="color:#000000;fill:#000000;stroke:none;stroke-linecap:butt;stroke-linejoin:miter;-inkscape-stroke:none"
         d="m 521.5625,248.81836 a 2.2341633,2.2341633 0 0 0 -2.23438,2.23437 v 57.54688 a 2.2341633,2.2341633 0 0 0 2.23438,2.23437 h 74.89062 a 2.2341633,2.2341633 0 0 0 2.23438,-2.23437 v -57.54688 a 2.2341633,2.2341633 0 0 0 -2.23438,-2.23437 z m 2.23437,4.46875 h 70.42188 v 53.07812 h -70.42188 z"
         id="path73" />
    </g>
    <path
       style="color:#000000;fill:#000000;stroke-linecap:round;stroke-linejoin:round;-inkscape-stroke:none"
       d="m 586.51172,306.21875 a 2.2341633,2.2341633 0 0 0 -2.23242,2.23242 v 31.58594 a 2.2341633,2.2341633 0 0 0 2.23242,2.23437 h 22.6582 a 2.2341633,2.2341633 0 0 0 2.23242,-2.23437 v -8.2207 h 47.37696 v 8.0039 a 2.2341633,2.2341633 0 0 0 2.23437,2.23242 h 22.21875 a 2.2341633,2.2341633 0 0 0 2.23438,-2.23242 v -7.78711 h 47.1582 v 8.22266 a 2.2341633,2.2341633 0 0 0 2.23437,2.23437 h 22.62891 a 2.2341633,2.2341633 0 0 0 2.23242,-2.23437 v -31.80469 a 2.2341633,2.2341633 0 0 0 -2.23242,-2.23242 z m 2.23437,4.4668 h 166.50782 v 27.33593 h -18.16016 v -8.22265 a 2.2341633,2.2341633 0 0 0 -2.23438,-2.23242 h -51.62695 a 2.2341633,2.2341633 0 0 0 -2.23437,2.23242 v 7.78711 h -17.75 v -8.00391 a 2.2341633,2.2341633 0 0 0 -2.23438,-2.23437 h -51.84375 a 2.2341633,2.2341633 0 0 0 -2.23437,2.23437 v 8.2207 h -18.18946 z"
       id="path70" />
  </g>
</svg>
