<?xml version="1.0" encoding="UTF-8" standalone="no"?>
<!-- Generated by IcoMoon.io -->

<svg
   version="1.1"
   width="1024"
   height="1024"
   viewBox="0 0 1024 1024"
   id="svg7"
   sodipodi:docname="inventories.svg"
   inkscape:version="1.1.2 (b8e25be833, 2022-02-05)"
   xmlns:inkscape="http://www.inkscape.org/namespaces/inkscape"
   xmlns:sodipodi="http://sodipodi.sourceforge.net/DTD/sodipodi-0.dtd"
   xmlns="http://www.w3.org/2000/svg"
   xmlns:svg="http://www.w3.org/2000/svg">
  <defs
     id="defs11" />
  <sodipodi:namedview
     id="namedview9"
     pagecolor="#505050"
     bordercolor="#ffffff"
     borderopacity="1"
     inkscape:pageshadow="0"
     inkscape:pageopacity="0"
     inkscape:pagecheckerboard="1"
     showgrid="false"
     showguides="true"
     inkscape:guide-bbox="true"
     inkscape:zoom="0.35355339"
     inkscape:cx="855.59921"
     inkscape:cy="851.35657"
     inkscape:window-width="1920"
     inkscape:window-height="1017"
     inkscape:window-x="-8"
     inkscape:window-y="-8"
     inkscape:window-maximized="1"
     inkscape:current-layer="svg7"
     width="1024px" />
  <title
     id="title2" />
  <g
     id="icomoon-ignore" />
  <g
     id="g1240"
     transform="matrix(1.0585401,0,0,1.0666432,-21.306878,-58.952599)">
    <path
       style="color:#000000;fill:#000000;stroke-linecap:round;stroke-linejoin:round;-inkscape-stroke:none"
       d="m 70.542969,589.25195 a 12.50125,12.50125 0 0 0 -12.5,12.5 v 394.41016 a 12.50125,12.50125 0 0 0 12.419922,12.49999 l 435.783199,2.7578 a 12.50125,12.50125 0 0 0 12.57813,-12.49998 V 601.75195 a 12.50125,12.50125 0 0 0 -12.5,-12.5 z m 12.5,25 H 493.82422 V 986.33984 L 83.042969,983.74023 Z"
       id="path91" />
    <path
       style="color:#000000;fill:#000000;stroke-linecap:round;stroke-linejoin:round;-inkscape-stroke:none"
       d="m 368.34766,589.25195 -161.8086,0.91992 a 12.50125,12.50125 0 0 0 -12.42969,12.5 v 135.14649 a 12.50125,12.50125 0 0 0 12.5,12.5 h 161.8086 a 12.50125,12.50125 0 0 0 12.5,-12.5 V 601.75195 a 12.50125,12.50125 0 0 0 -12.57031,-12.5 z m -12.42969,25.07227 v 110.99414 h -136.8086 v -110.2168 z"
       id="path93" />
    <path
       style="color:#000000;fill:#000000;stroke-linecap:round;stroke-linejoin:round;-inkscape-stroke:none"
       d="m 181.78711,66.130859 a 12.50125,12.50125 0 0 0 -12.5,12.5 V 554.86523 a 12.5,12.5 0 0 0 12.5,12.5 12.5,12.5 0 0 0 12.5,-12.5 V 91.130859 H 691.48828 V 256.98828 a 12.5,12.5 0 0 0 12.5,12.5 12.5,12.5 0 0 0 12.5,-12.5 V 78.630859 a 12.50125,12.50125 0 0 0 -12.5,-12.5 z"
       id="path95" />
    <path
       style="color:#000000;fill:#000000;stroke-linecap:round;stroke-linejoin:round;-inkscape-stroke:none"
       d="m 362.33594,67.048828 a 12.5,12.5 0 0 0 -12.5,12.5 V 210.09961 a 12.50125,12.50125 0 0 0 12.5,12.5 h 163.64843 a 12.50125,12.50125 0 0 0 12.5,-12.5 V 79.548828 a 12.5,12.5 0 0 0 -12.5,-12.5 12.5,12.5 0 0 0 -12.5,12.5 V 197.59961 H 374.83594 V 79.548828 a 12.5,12.5 0 0 0 -12.5,-12.5 z"
       id="path97" />
    <path
       style="color:#000000;fill:#000000;stroke-linecap:round;stroke-linejoin:round;-inkscape-stroke:none"
       d="m 358.30664,310.68359 a 12.50125,12.50125 0 0 0 -12.5,12.5 V 540.1543 a 12.5,12.5 0 0 0 12.5,12.5 12.5,12.5 0 0 0 12.5,-12.5 V 335.68359 h 427.32813 v 305.60157 a 12.5,12.5 0 0 0 12.5,12.5 12.5,12.5 0 0 0 12.5,-12.5 V 323.18359 a 12.50125,12.50125 0 0 0 -12.5,-12.5 z"
       id="path99" />
    <path
       style="color:#000000;fill:#000000;stroke-linecap:round;stroke-linejoin:round;-inkscape-stroke:none"
       d="m 516.4375,312.52148 a 12.5,12.5 0 0 0 -12.5,12.5 v 126.87305 a 12.50125,12.50125 0 0 0 12.5,12.5 h 126.87305 a 12.50125,12.50125 0 0 0 12.5,-12.5 v -125.0332 a 12.5,12.5 0 0 0 -12.5,-12.5 12.5,12.5 0 0 0 -12.5,12.5 v 112.5332 H 528.9375 V 325.02148 a 12.5,12.5 0 0 0 -12.5,-12.5 z"
       id="path101" />
    <path
       style="color:#000000;fill:#000000;stroke-linecap:round;stroke-linejoin:round;-inkscape-stroke:none"
       d="m 556.46484,665.56055 a 12.5,12.5 0 0 0 -12.5,12.5 12.5,12.5 0 0 0 12.5,12.5 H 924.58398 V 983.66211 H 556.46484 a 12.5,12.5 0 0 0 -12.5,12.5 12.5,12.5 0 0 0 12.5,12.49999 h 380.61914 a 12.50125,12.50125 0 0 0 12.5,-12.49999 V 678.06055 a 12.50125,12.50125 0 0 0 -12.5,-12.5 z"
       id="path103" />
    <path
       style="color:#000000;fill:#000000;stroke-linecap:round;stroke-linejoin:round;-inkscape-stroke:none"
       d="m 648.82617,674.75391 a 12.5,12.5 0 0 0 -12.5,12.5 v 139.74414 a 12.50125,12.50125 0 0 0 12.5,12.5 h 130.55078 a 12.50125,12.50125 0 0 0 12.5,-12.5 V 692.76953 a 12.5,12.5 0 0 0 -12.5,-12.5 12.5,12.5 0 0 0 -12.5,12.5 V 814.49805 H 661.32617 V 687.25391 a 12.5,12.5 0 0 0 -12.5,-12.5 z"
       id="path105" />
  </g>
</svg>
