<?xml version="1.0" encoding="UTF-8" standalone="no"?>
<!-- Generated by IcoMoon.io -->

<svg
   version="1.1"
   width="42"
   height="32"
   viewBox="0 0 42 32"
   id="svg6"
   sodipodi:docname="products.svg"
   inkscape:version="1.1.2 (08b2f3d93c, 2022-04-05)"
   xmlns:inkscape="http://www.inkscape.org/namespaces/inkscape"
   xmlns:sodipodi="http://sodipodi.sourceforge.net/DTD/sodipodi-0.dtd"
   xmlns="http://www.w3.org/2000/svg"
   xmlns:svg="http://www.w3.org/2000/svg"
   xmlns:rdf="http://www.w3.org/1999/02/22-rdf-syntax-ns#"
   xmlns:cc="http://creativecommons.org/ns#"
   xmlns:dc="http://purl.org/dc/elements/1.1/">
  <defs
     id="defs10" />
  <sodipodi:namedview
     id="namedview8"
     pagecolor="#505050"
     bordercolor="#ffffff"
     borderopacity="1"
     inkscape:pageshadow="0"
     inkscape:pageopacity="0"
     inkscape:pagecheckerboard="1"
     showgrid="false"
     inkscape:zoom="16.234774"
     inkscape:cx="20.29594"
     inkscape:cy="15.861015"
     inkscape:window-width="1366"
     inkscape:window-height="718"
     inkscape:window-x="0"
     inkscape:window-y="27"
     inkscape:window-maximized="1"
     inkscape:current-layer="layer2" />
  <title
     id="title2">focus</title>
  <g
     inkscape:groupmode="layer"
     id="layer2"
     inkscape:label="dibujo"
     style="display:inline">
    <g
       id="g1037"
       transform="matrix(0.97474013,0,0,0.97474013,0.36460047,0.53197551)">
      <path
         style="color:#000000;fill:#000000;stroke-linecap:round;-inkscape-stroke:none"
         d="m 11.751953,10.728516 -7.9882811,0.002 -3.29687502,2.787109 3.23437502,2.75 A 0.5,0.5 0 0 0 4.40625,16.210937 0.5,0.5 0 0 0 4.3476562,15.505859 l -2.3339843,-1.986328 2.1152343,-1.789062 7.2558598,-0.002 2.113281,1.80664 -2.199219,1.871094 a 0.5,0.5 0 0 0 -0.05664,0.705078 0.5,0.5 0 0 0 0.705078,0.05664 l 3.09375,-2.63086 z"
         id="path978" />
      <path
         style="color:#000000;fill:#000000;-inkscape-stroke:none"
         d="m 10.404297,5.6699219 -0.9570314,0.2910156 1.4472654,4.7675785 -6.2578123,0.002 1.5429688,-4.7226565 -0.9492188,-0.3105469 -1.9746093,6.0332034 8.9863286,-0.002 z"
         id="path1070" />
      <path
         style="color:#000000;fill:#000000;stroke-linecap:round;-inkscape-stroke:none"
         d="m 7.7597656,-0.24414063 c -2.253347,0 -4.1738281,1.54242063 -4.1738281,3.55468753 0,2.0122669 1.9204811,3.5566406 4.1738281,3.5566406 2.2533474,0 4.1738284,-1.5443737 4.1738284,-3.5566406 0,-2.0122669 -1.920481,-3.55468752 -4.1738284,-3.55468753 z m 0,1 c 1.8037963,10e-9 3.1738284,1.19212473 3.1738284,2.55468753 0,1.3625628 -1.3700321,2.5566406 -3.1738284,2.5566406 -1.8037963,0 -3.1738281,-1.1940778 -3.1738281,-2.5566406 0,-1.3625628 1.3700318,-2.55468753 3.1738281,-2.55468753 z"
         id="path1094" />
      <path
         style="color:#000000;fill:#000000;stroke-linecap:round;-inkscape-stroke:none"
         d="m 7.7597656,1.9414062 c -0.8659231,0 -1.6054687,0.5936935 -1.6054687,1.3691407 0,0.7754471 0.7395456,1.3691406 1.6054687,1.3691406 0.8659232,0 1.6054688,-0.5936935 1.6054688,-1.3691406 0,-0.7754472 -0.7395456,-1.3691407 -1.6054688,-1.3691407 z m 0,0.4003907 c 0.6861029,0 1.2050782,0.4531845 1.2050782,0.96875 0,0.5155655 -0.5189753,0.96875 -1.2050782,0.96875 -0.6861028,0 -1.2050781,-0.4531845 -1.2050781,-0.96875 0,-0.5155655 0.5189753,-0.96875 1.2050781,-0.96875 z"
         id="circle1176" />
      <g
         id="g1477"
         transform="matrix(0.20471691,0,0,0.17028846,43.967587,12.035602)"
         style="stroke-width:5.35588">
        <path
           style="color:#000000;fill:#000000;stroke-linecap:round;-inkscape-stroke:none"
           d="m -29.494141,-44.261719 c -11.35642,0 -20.61914,9.262721 -20.61914,20.619141 0,11.35642 9.26272,20.6210936 20.61914,20.6210936 11.356421,0 20.6210941,-9.2646736 20.6210941,-20.6210936 0,-11.35642 -9.2646731,-20.619141 -20.6210941,-20.619141 z m 0,5.355469 c 8.461891,0 15.265625,6.801781 15.265625,15.263672 0,8.461891 -6.803734,15.2636717 -15.265625,15.2636717 -8.46189,0 -15.263671,-6.8017807 -15.263671,-15.2636717 0,-8.461891 6.801781,-15.263672 15.263671,-15.263672 z"
           id="circle1473" />
        <path
           style="color:#000000;fill:#000000;stroke-linecap:round;-inkscape-stroke:none"
           d="m -29.494141,-33.183594 c -5.237928,0 -9.541015,4.303087 -9.541015,9.541016 0,5.237929 4.303087,9.541016 9.541015,9.541015 5.237929,0 9.542969,-4.303086 9.542969,-9.541015 0,-5.237929 -4.30504,-9.541016 -9.542969,-9.541016 z m 0,5.355469 c 2.3434,0 4.185547,1.842148 4.185547,4.185547 0,2.343399 -1.842147,4.185547 -4.185547,4.185547 -2.343399,0 -4.185546,-1.842148 -4.185546,-4.185547 0,-2.343399 1.842147,-4.185547 4.185546,-4.185547 z"
           id="circle1475" />
      </g>
      <path
         style="color:#000000;fill:#000000;stroke-linecap:round;-inkscape-stroke:none"
         d="m 11.244141,2.0878906 a 0.5,0.5 0 0 0 -0.541016,0.453125 0.5,0.5 0 0 0 0.453125,0.5429688 l 27.392578,2.4082031 a 0.5,0.5 0 0 0 0.541016,-0.453125 0.5,0.5 0 0 0 -0.455078,-0.5429688 z"
         id="path1512" />
      <path
         style="color:#000000;fill:#000000;stroke-linecap:round;-inkscape-stroke:none"
         d="m 10.960938,4.6230469 a 0.5,0.5 0 0 0 -0.595704,0.3789062 0.5,0.5 0 0 0 0.378907,0.5976563 l 25.607421,5.6914066 a 0.5,0.5 0 0 0 0.595704,-0.378907 0.5,0.5 0 0 0 -0.378907,-0.597656 z"
         id="path1514" />
      <path
         style="color:#000000;fill:#000000;stroke-linecap:round;-inkscape-stroke:none"
         d="m 29.566406,20.279297 c -1.462164,0 -2.685547,0.99421 -2.685547,2.265625 0,1.271415 1.223383,2.267578 2.685547,2.267578 1.462165,0 2.683594,-0.996163 2.683594,-2.267578 0,-1.271415 -1.221429,-2.265625 -2.683594,-2.265625 z m 0,0.40039 c 1.282345,0 2.285156,0.853701 2.285156,1.865235 0,1.011533 -1.002811,1.867187 -2.285156,1.867187 -1.282344,0 -2.285156,-0.855654 -2.285156,-1.867187 0,-1.011534 1.002812,-1.865235 2.285156,-1.865235 z"
         id="path1869" />
      <path
         style="color:#000000;fill:#000000;stroke-linecap:round;-inkscape-stroke:none"
         d="m 29.554687,18.328125 c -2.792004,0 -5.185133,1.813512 -5.378906,4.261719 a 0.5,0.5 0 0 0 0.458985,0.539062 0.5,0.5 0 0 0 0.537109,-0.458984 c 0.14481,-1.829594 2.021009,-3.341797 4.382812,-3.341797 2.362121,0 4.238385,1.511939 4.382813,3.341797 a 0.5,0.5 0 0 0 0.539062,0.458984 0.5,0.5 0 0 0 0.458985,-0.537109 c -0.193262,-2.448566 -2.588484,-4.263672 -5.38086,-4.263672 z"
         id="path3052" />
      <path
         style="color:#000000;fill:#000000;stroke-linecap:round;-inkscape-stroke:none"
         d="m 24.673828,22.130859 a 0.5,0.5 0 0 0 -0.5,0.5 v 3.50586 a 0.5,0.5 0 0 0 0.5,0.5 0.5,0.5 0 0 0 0.5,-0.5 v -3.50586 a 0.5,0.5 0 0 0 -0.5,-0.5 z"
         id="path3168" />
      <path
         style="color:#000000;fill:#000000;-inkscape-stroke:none"
         d="m 33.935547,22.630859 v 3.496094 h 1 v -3.496094 z"
         id="path3170" />
      <path
         style="color:#000000;fill:#000000;stroke-linecap:round;-inkscape-stroke:none"
         d="m 35.060547,10.013672 a 0.5,0.5 0 0 0 -0.69336,0.136719 l -5.662109,8.447265 a 0.5,0.5 0 0 0 0.136719,0.69336 0.5,0.5 0 0 0 0.695312,-0.136719 l 5.660157,-8.447266 a 0.5,0.5 0 0 0 -0.136719,-0.693359 z"
         id="path3285" />
      <path
         style="color:#000000;fill:#000000;stroke-linecap:round;-inkscape-stroke:none"
         d="m 37.667969,10.625 a 0.5,0.5 0 0 0 -0.28711,0.253906 l -4.458984,9.228516 a 0.5,0.5 0 0 0 0.232422,0.667969 0.5,0.5 0 0 0 0.667969,-0.232422 L 38.28125,11.314453 A 0.5,0.5 0 0 0 38.048828,10.646484 0.5,0.5 0 0 0 37.667969,10.625 Z"
         id="path3287" />
      <path
         style="color:#000000;fill:#000000;stroke-linecap:round;-inkscape-stroke:none"
         d="m 5.3945312,20.400391 c -0.4252706,0 -0.7734375,0.348167 -0.7734375,0.773437 v 4.351563 c 0,0.42527 0.3481669,0.77539 0.7734375,0.77539 h 5.7753908 c 0.42527,0 0.775391,-0.35012 0.775391,-0.77539 v -4.351563 c 0,-0.42527 -0.350121,-0.773437 -0.775391,-0.773437 z m 0,0.40039 h 5.7753908 c 0.21059,0 0.375,0.162457 0.375,0.373047 v 4.351563 c 0,0.210589 -0.16441,0.375 -0.375,0.375 H 5.3945312 c -0.2105897,0 -0.3749999,-0.164411 -0.375,-0.375 v -4.351563 c 0,-0.21059 0.1644103,-0.373047 0.375,-0.373047 z"
         id="rect3311" />
      <path
         style="color:#000000;fill:#000000;-inkscape-stroke:none"
         d="M 7.2910156,21.097656 5.859375,22.203125 6.1035156,22.519531 7.5351562,21.414062 Z"
         id="path3428" />
      <path
         style="color:#000000;fill:#000000;-inkscape-stroke:none"
         d="m 9.5136719,21.373047 -3.2695313,2.585937 0.2480469,0.3125 3.2695313,-2.583984 z"
         id="path3430" />
      <path
         style="color:#000000;fill:#000000;stroke-linecap:round;-inkscape-stroke:none"
         d="m 34.931641,25.556641 c -0.148877,-10e-7 -0.297339,0.0071 -0.445313,0.02148 a 0.5,0.5 0 0 0 -0.449219,0.544922 0.5,0.5 0 0 0 0.544922,0.449219 c 0.115803,-0.01123 0.232923,-0.01563 0.34961,-0.01563 1.670279,0 2.931641,1.102015 2.93164,2.353515 0,1.2515 -1.261362,2.355469 -2.93164,2.355469 -0.116687,0 -0.233807,-0.0063 -0.34961,-0.01758 a 0.5,0.5 0 0 0 -0.544922,0.449219 0.5,0.5 0 0 0 0.449219,0.546875 c 0.147974,0.01435 0.296436,0.02148 0.445313,0.02148 2.119829,0 3.93164,-1.454265 3.93164,-3.355469 10e-7,-1.901204 -1.81181,-3.353515 -3.93164,-3.353515 z"
         id="circle3512" />
      <path
         style="color:#000000;fill:#000000;stroke-linecap:round;-inkscape-stroke:none"
         d="m 3.3417969,25.578125 c -1.9372026,0.187863 -3.4843748,1.583383 -3.48437502,3.332031 9.5e-7,1.748648 1.54717292,3.146122 3.48437502,3.333985 A 0.5,0.5 0 0 0 3.8886719,31.792969 0.5,0.5 0 0 0 3.4394531,31.248047 C 1.9174066,31.100445 0.8574225,30.058484 0.85742188,28.910156 c 1.4e-7,-1.148328 1.05998432,-2.190288 2.58203122,-2.33789 a 0.5,0.5 0 0 0 0.4492188,-0.544922 0.5,0.5 0 0 0 -0.546875,-0.449219 z"
         id="path3629" />
      <path
         style="color:#000000;fill:#000000;stroke-linecap:round;-inkscape-stroke:none"
         d="m 3.390625,25.576172 a 0.5,0.5 0 0 0 -0.5,0.498047 0.5,0.5 0 0 0 0.5,0.501953 l 31.044922,0.05078 a 0.5,0.5 0 0 0 0.5,-0.5 0.5,0.5 0 0 0 -0.498047,-0.5 z"
         id="path3665" />
      <path
         style="color:#000000;fill:#000000;-inkscape-stroke:none"
         d="m 3.390625,31.246094 v 1 h 31.144531 v -1 z"
         id="path3667" />
      <path
         style="color:#000000;fill:#000000;stroke-linecap:round;-inkscape-stroke:none"
         d="m 5.8046875,27.583984 c -0.8969811,0 -1.6601563,0.614734 -1.6601563,1.416016 0,0.801282 0.7631752,1.416016 1.6601563,1.416016 0.8969811,0 1.6621094,-0.614734 1.6621094,-1.416016 0,-0.801282 -0.7651283,-1.416016 -1.6621094,-1.416016 z m 0,0.400391 c 0.7171609,0 1.2617187,0.474225 1.2617187,1.015625 0,0.5414 -0.5445578,1.015625 -1.2617187,1.015625 -0.7171609,0 -1.2617188,-0.474225 -1.2617188,-1.015625 0,-0.5414 0.5445579,-1.015625 1.2617188,-1.015625 z"
         id="circle3749" />
      <path
         style="color:#000000;fill:#000000;stroke-linecap:round;-inkscape-stroke:none"
         d="m 11.326172,27.583984 c -0.896981,0 -1.6601564,0.614734 -1.6601564,1.416016 0,0.801282 0.7631754,1.416016 1.6601564,1.416016 0.896981,0 1.662109,-0.614734 1.662109,-1.416016 0,-0.801282 -0.765128,-1.416016 -1.662109,-1.416016 z m 0,0.400391 c 0.717161,0 1.261719,0.474225 1.261719,1.015625 0,0.5414 -0.544558,1.015625 -1.261719,1.015625 -0.717161,0 -1.259766,-0.474225 -1.259766,-1.015625 0,-0.5414 0.542605,-1.015625 1.259766,-1.015625 z"
         id="circle3751" />
      <path
         style="color:#000000;fill:#000000;stroke-linecap:round;-inkscape-stroke:none"
         d="m 16.847656,27.583984 c -0.896981,0 -1.662109,0.614734 -1.662109,1.416016 0,0.801282 0.765128,1.416016 1.662109,1.416016 0.896981,0 1.660156,-0.614734 1.660156,-1.416016 0,-0.801282 -0.763175,-1.416016 -1.660156,-1.416016 z m 0,0.400391 c 0.717161,0 1.259766,0.474225 1.259766,1.015625 0,0.5414 -0.542605,1.015625 -1.259766,1.015625 -0.717161,0 -1.261719,-0.474225 -1.261718,-1.015625 0,-0.5414 0.544557,-1.015625 1.261718,-1.015625 z"
         id="circle3753" />
      <path
         style="color:#000000;fill:#000000;stroke-linecap:round;-inkscape-stroke:none"
         d="m 22.466797,27.583984 c -0.896981,0 -1.66211,0.614734 -1.66211,1.416016 0,0.801282 0.765129,1.416016 1.66211,1.416016 0.896981,0 1.660156,-0.614734 1.660156,-1.416016 0,-0.801282 -0.763175,-1.416016 -1.660156,-1.416016 z m 0,0.400391 c 0.717161,0 1.261719,0.474225 1.261719,1.015625 0,0.5414 -0.544558,1.015625 -1.261719,1.015625 -0.717161,0 -1.261719,-0.474225 -1.261719,-1.015625 0,-0.5414 0.544558,-1.015625 1.261719,-1.015625 z"
         id="circle3755" />
      <path
         style="color:#000000;fill:#000000;stroke-linecap:round;-inkscape-stroke:none"
         d="m 27.878906,27.583984 c -0.896981,0 -1.662109,0.614734 -1.662109,1.416016 0,0.801282 0.765128,1.416016 1.662109,1.416016 0.896981,0 1.660156,-0.614734 1.660156,-1.416016 0,-0.801282 -0.763175,-1.416016 -1.660156,-1.416016 z m 0,0.400391 c 0.717161,0 1.261719,0.474225 1.261719,1.015625 0,0.5414 -0.544558,1.015625 -1.261719,1.015625 -0.717161,0 -1.261719,-0.474225 -1.261719,-1.015625 0,-0.5414 0.544558,-1.015625 1.261719,-1.015625 z"
         id="circle3757" />
      <path
         style="color:#000000;fill:#000000;stroke-linecap:round;-inkscape-stroke:none"
         d="m 33.443359,27.583984 c -0.896981,0 -1.662109,0.614734 -1.662109,1.416016 0,0.801282 0.765128,1.416016 1.662109,1.416016 0.896982,0 1.660157,-0.614734 1.660157,-1.416016 0,-0.801282 -0.763175,-1.416016 -1.660157,-1.416016 z m 0,0.400391 c 0.717161,0 1.261719,0.474225 1.261719,1.015625 0,0.5414 -0.544558,1.015625 -1.261719,1.015625 -0.717161,0 -1.261718,-0.474225 -1.261718,-1.015625 0,-0.5414 0.544557,-1.015625 1.261718,-1.015625 z"
         id="circle3759" />
    </g>
  </g>
  <metadata
     id="metadata1055">
    <rdf:RDF>
      <cc:Work
         rdf:about="">
        <dc:title>focus</dc:title>
      </cc:Work>
    </rdf:RDF>
  </metadata>
</svg>
